<?xml version="1.0" encoding="UTF-8"?>
<svg xmlns="http://www.w3.org/2000/svg" xmlns:xlink="http://www.w3.org/1999/xlink" width="117.16pt" height="117.23pt" viewBox="0 0 117.16 117.23" version="1.1">
<g id="surface1">
<path style=" stroke:none;fill-rule:nonzero;fill:rgb(8.599854%,12.199402%,29.798889%);fill-opacity:1;" d="M 107.992188 108.027344 L 9.167969 108.027344 L 9.167969 9.203125 L 107.992188 9.203125 L 107.992188 108.027344 "/>
<path style=" stroke:none;fill-rule:nonzero;fill:rgb(100%,100%,100%);fill-opacity:1;" d="M 31.78125 91.9375 L 31.78125 82.253906 L 33.773438 82.253906 L 33.773438 90.335938 L 37.300781 90.335938 L 37.300781 91.9375 L 31.78125 91.9375 "/>
<path style=" stroke:none;fill-rule:nonzero;fill:rgb(100%,100%,100%);fill-opacity:1;" d="M 39.15625 91.9375 L 39.15625 82.253906 L 41.148438 82.253906 L 41.148438 91.9375 L 39.15625 91.9375 "/>
<path style=" stroke:none;fill-rule:nonzero;fill:rgb(100%,100%,100%);fill-opacity:1;" d="M 43.503906 82.253906 L 49.023438 82.253906 L 49.023438 83.851563 L 45.492188 83.851563 L 45.492188 86.132813 L 48.816406 86.132813 L 48.816406 87.734375 L 45.492188 87.734375 L 45.492188 91.9375 L 43.503906 91.9375 L 43.503906 82.253906 "/>
<path style=" stroke:none;fill-rule:nonzero;fill:rgb(100%,100%,100%);fill-opacity:1;" d="M 56.300781 82.253906 L 56.300781 83.851563 L 52.773438 83.851563 L 52.773438 86.132813 L 56.09375 86.132813 L 56.09375 87.734375 L 52.773438 87.734375 L 52.773438 90.335938 L 56.4375 90.335938 L 56.4375 91.9375 L 50.78125 91.9375 L 50.78125 82.253906 L 56.300781 82.253906 "/>
<path style=" stroke:none;fill-rule:nonzero;fill:rgb(100%,100%,100%);fill-opacity:1;" d="M 58.308594 91.9375 L 58.308594 82.253906 L 60.300781 82.253906 L 60.300781 90.335938 L 63.828125 90.335938 L 63.828125 91.9375 L 58.308594 91.9375 "/>
<path style=" stroke:none;fill-rule:nonzero;fill:rgb(100%,100%,100%);fill-opacity:1;" d="M 65.683594 91.9375 L 65.683594 82.253906 L 67.675781 82.253906 L 67.675781 91.9375 L 65.683594 91.9375 "/>
<path style=" stroke:none;fill-rule:nonzero;fill:rgb(100%,100%,100%);fill-opacity:1;" d="M 69.96875 82.253906 L 72.316406 82.253906 L 76.808594 88.75 L 76.839844 88.75 L 76.839844 82.253906 L 79.054688 82.253906 L 79.054688 91.9375 L 76.6875 91.9375 L 72.210938 85.453125 L 72.183594 85.453125 L 72.183594 91.9375 L 69.96875 91.9375 L 69.96875 82.253906 "/>
<path style=" stroke:none;fill-rule:nonzero;fill:rgb(100%,100%,100%);fill-opacity:1;" d="M 86.675781 82.253906 L 86.675781 83.851563 L 83.148438 83.851563 L 83.148438 86.132813 L 86.46875 86.132813 L 86.46875 87.734375 L 83.148438 87.734375 L 83.148438 90.335938 L 86.8125 90.335938 L 86.8125 91.9375 L 81.15625 91.9375 L 81.15625 82.253906 L 86.675781 82.253906 "/>
<path style=" stroke:none;fill-rule:nonzero;fill:rgb(100%,100%,100%);fill-opacity:1;" d="M 101.460938 101.496094 L 15.699219 101.496094 L 15.699219 91.9375 L 20.828125 91.9375 L 20.828125 57.347656 L 15.699219 57.347656 L 15.699219 15.734375 L 101.460938 15.734375 Z M 13.53125 13.5625 L 13.53125 103.664063 L 103.632813 103.664063 L 103.632813 13.5625 L 13.53125 13.5625 "/>
<path style=" stroke:none;fill-rule:nonzero;fill:rgb(100%,100%,100%);fill-opacity:1;" d="M 57.058594 42.089844 C 57.546875 41.570313 58.378906 41.046875 59.703125 41.046875 C 60.953125 41.046875 61.648438 41.570313 61.890625 41.742188 C 62.378906 42.125 62.933594 42.890625 62.933594 44.105469 C 62.933594 45.253906 62.449219 46.019531 61.996094 46.4375 C 61.335938 47.0625 60.328125 47.339844 59.457031 47.339844 C 58.625 47.339844 57.71875 47.097656 57.128906 46.539063 C 56.640625 46.089844 56.222656 45.359375 56.222656 44.386719 C 56.222656 43.167969 56.746094 42.402344 57.058594 42.089844 Z M 58.761719 32.109375 C 59.285156 31.589844 59.980469 31.308594 60.847656 31.308594 C 61.648438 31.308594 62.378906 31.554688 62.832031 31.972656 C 63.351563 32.421875 63.632813 33.152344 63.632813 33.8125 C 63.632813 34.613281 63.316406 35.449219 62.796875 35.96875 C 62.378906 36.386719 61.648438 36.804688 60.605469 36.804688 C 59.527344 36.804688 58.902344 36.351563 58.519531 35.933594 C 58.207031 35.585938 57.894531 35.066406 57.894531 34.300781 C 57.894531 33.429688 58.242188 32.632813 58.761719 32.109375 Z M 53.164063 49.808594 C 55.109375 51.339844 57.335938 51.582031 59.527344 51.582031 C 61.71875 51.582031 64.324219 51.375 66.34375 49.355469 C 67.488281 48.210938 68.359375 46.472656 68.359375 44.246094 C 68.359375 42.679688 67.871094 41.429688 66.828125 40.421875 C 66.167969 39.792969 65.335938 39.308594 64.359375 39.03125 C 65.335938 38.714844 66.414063 38.125 67.144531 37.324219 C 68.21875 36.144531 68.429688 34.820313 68.429688 33.605469 C 68.429688 31.867188 68.046875 30.476563 66.761719 29.257813 C 65.160156 27.695313 63.074219 27.347656 60.988281 27.347656 C 59.074219 27.347656 56.675781 27.625 54.867188 29.503906 C 53.683594 30.71875 53.09375 32.421875 53.09375 34.058594 C 53.09375 35.203125 53.371094 36.179688 53.964844 37.046875 C 54.414063 37.707031 55.042969 38.335938 55.875 38.785156 C 54.625 39.066406 53.339844 39.726563 52.539063 40.492188 C 51.53125 41.464844 50.800781 43.097656 50.800781 44.941406 C 50.800781 46.332031 51.25 48.28125 53.164063 49.808594 "/>
<path style=" stroke:none;fill-rule:nonzero;fill:rgb(100%,100%,100%);fill-opacity:1;" d="M 76.96875 42.089844 C 77.457031 41.570313 78.289063 41.046875 79.613281 41.046875 C 80.863281 41.046875 81.558594 41.570313 81.800781 41.742188 C 82.289063 42.125 82.84375 42.890625 82.84375 44.105469 C 82.84375 45.253906 82.359375 46.019531 81.90625 46.4375 C 81.246094 47.0625 80.238281 47.339844 79.367188 47.339844 C 78.535156 47.339844 77.628906 47.097656 77.039063 46.539063 C 76.550781 46.089844 76.136719 45.359375 76.136719 44.386719 C 76.136719 43.167969 76.65625 42.402344 76.96875 42.089844 Z M 78.671875 32.109375 C 79.195313 31.589844 79.890625 31.308594 80.757813 31.308594 C 81.558594 31.308594 82.289063 31.554688 82.742188 31.972656 C 83.261719 32.421875 83.542969 33.152344 83.542969 33.8125 C 83.542969 34.613281 83.226563 35.449219 82.707031 35.96875 C 82.289063 36.386719 81.558594 36.804688 80.515625 36.804688 C 79.4375 36.804688 78.8125 36.351563 78.429688 35.933594 C 78.117188 35.585938 77.804688 35.066406 77.804688 34.300781 C 77.804688 33.429688 78.152344 32.632813 78.671875 32.109375 Z M 73.074219 49.808594 C 75.023438 51.339844 77.246094 51.582031 79.4375 51.582031 C 81.628906 51.582031 84.238281 51.375 86.253906 49.355469 C 87.402344 48.210938 88.269531 46.472656 88.269531 44.246094 C 88.269531 42.679688 87.785156 41.429688 86.738281 40.421875 C 86.078125 39.792969 85.246094 39.308594 84.273438 39.03125 C 85.246094 38.714844 86.324219 38.125 87.054688 37.324219 C 88.132813 36.144531 88.339844 34.820313 88.339844 33.605469 C 88.339844 31.867188 87.957031 30.476563 86.671875 29.257813 C 85.070313 27.695313 82.984375 27.347656 80.898438 27.347656 C 78.984375 27.347656 76.585938 27.625 74.777344 29.503906 C 73.597656 30.71875 73.003906 32.421875 73.003906 34.058594 C 73.003906 35.203125 73.285156 36.179688 73.875 37.046875 C 74.328125 37.707031 74.953125 38.335938 75.785156 38.785156 C 74.535156 39.066406 73.25 39.726563 72.449219 40.492188 C 71.441406 41.464844 70.710938 43.097656 70.710938 44.941406 C 70.710938 46.332031 71.160156 48.28125 73.074219 49.808594 "/>
<path style=" stroke:none;fill-rule:nonzero;fill:rgb(100%,100%,100%);fill-opacity:1;" d="M 38.015625 32.839844 C 38.605469 32.214844 39.613281 31.726563 40.9375 31.726563 C 42.328125 31.726563 43.160156 32.214844 43.648438 32.667969 C 44.34375 33.328125 44.726563 34.300781 44.726563 35.273438 C 44.726563 36.28125 44.273438 37.464844 43.542969 38.195313 C 42.882813 38.855469 41.804688 39.238281 40.726563 39.238281 C 39.71875 39.238281 38.605469 38.855469 37.945313 38.195313 C 37.320313 37.570313 36.972656 36.5625 36.972656 35.726563 C 36.972656 34.789063 37.320313 33.570313 38.015625 32.839844 Z M 39.683594 43.308594 L 33.425781 50.332031 L 33.429688 50.332031 L 32.359375 51.523438 L 38.605469 51.546875 L 39.691406 50.332031 L 45.28125 44.070313 C 47.054688 42.089844 48.03125 40.90625 48.621094 39.863281 C 49.457031 38.4375 50.011719 36.664063 50.011719 34.855469 C 50.011719 32.074219 48.792969 30.40625 47.820313 29.503906 C 45.875 27.695313 43.160156 27.347656 41.074219 27.347656 C 38.640625 27.347656 36 27.796875 33.980469 29.710938 C 32.695313 30.929688 31.476563 32.910156 31.476563 36.003906 C 31.476563 37.882813 31.894531 39.761719 33.496094 41.289063 C 35.058594 42.820313 37.355469 43.515625 39.683594 43.308594 "/>
<path style=" stroke:none;fill-rule:nonzero;fill:rgb(100%,100%,100%);fill-opacity:1;" d="M 35.664063 59.84375 C 35.664063 58.921875 35.332031 58.285156 34.300781 58.285156 C 33.394531 58.285156 32.851563 58.777344 32.851563 59.707031 C 32.851563 62.175781 36.988281 60.703125 36.988281 63.902344 C 36.988281 65.929688 35.503906 66.503906 34.265625 66.503906 C 32.214844 66.503906 31.613281 65.449219 31.613281 63.585938 L 32.695313 63.585938 C 32.695313 64.566406 32.753906 65.621094 34.339844 65.621094 C 35.195313 65.621094 35.859375 65.007813 35.859375 64.074219 C 35.859375 61.597656 31.722656 63.03125 31.722656 59.820313 C 31.722656 59.007813 32.066406 57.402344 34.289063 57.402344 C 35.957031 57.402344 36.71875 58.234375 36.742188 59.84375 L 35.664063 59.84375 "/>
<path style=" stroke:none;fill-rule:nonzero;fill:rgb(100%,100%,100%);fill-opacity:1;" d="M 41.226563 57.574219 L 42.308594 57.574219 L 42.308594 63.730469 C 42.308594 65.019531 42.726563 65.621094 43.792969 65.621094 C 44.945313 65.621094 45.289063 64.960938 45.289063 63.730469 L 45.289063 57.574219 L 46.367188 57.574219 L 46.367188 63.730469 C 46.367188 65.414063 45.511719 66.503906 43.792969 66.503906 C 42.039063 66.503906 41.226563 65.535156 41.226563 63.730469 L 41.226563 57.574219 "/>
<path style=" stroke:none;fill-rule:nonzero;fill:rgb(100%,100%,100%);fill-opacity:1;" d="M 50.941406 57.574219 L 52.019531 57.574219 L 52.019531 66.332031 L 50.941406 66.332031 L 50.941406 57.574219 "/>
<path style=" stroke:none;fill-rule:nonzero;fill:rgb(100%,100%,100%);fill-opacity:1;" d="M 62.050781 63.328125 C 61.953125 64.984375 61.304688 66.503906 59.390625 66.503906 C 56.898438 66.503906 56.570313 64.160156 56.570313 61.953125 C 56.570313 59.746094 56.972656 57.402344 59.390625 57.402344 C 61.179688 57.402344 61.929688 58.40625 61.976563 60.125 L 60.851563 60.125 C 60.824219 59.132813 60.507813 58.285156 59.390625 58.285156 C 57.894531 58.285156 57.695313 59.929688 57.695313 61.953125 C 57.695313 63.976563 57.894531 65.621094 59.390625 65.621094 C 60.703125 65.621094 60.886719 64.394531 60.921875 63.328125 L 62.050781 63.328125 "/>
<path style=" stroke:none;fill-rule:nonzero;fill:rgb(100%,100%,100%);fill-opacity:1;" d="M 66.304688 57.574219 L 67.382813 57.574219 L 67.382813 66.332031 L 66.304688 66.332031 L 66.304688 57.574219 "/>
<path style=" stroke:none;fill-rule:nonzero;fill:rgb(100%,100%,100%);fill-opacity:1;" d="M 73.246094 65.449219 L 74.375 65.449219 C 76.238281 65.449219 76.449219 63.535156 76.449219 61.964844 C 76.449219 60.273438 76.335938 58.457031 74.375 58.457031 L 73.246094 58.457031 Z M 72.164063 57.574219 L 74.507813 57.574219 C 77.234375 57.574219 77.578125 59.535156 77.578125 61.953125 C 77.578125 64.160156 77.023438 66.332031 74.621094 66.332031 L 72.164063 66.332031 L 72.164063 57.574219 "/>
<path style=" stroke:none;fill-rule:nonzero;fill:rgb(100%,100%,100%);fill-opacity:1;" d="M 82.121094 57.574219 L 86.648438 57.574219 L 86.648438 58.53125 L 83.203125 58.53125 L 83.203125 61.277344 L 86.453125 61.277344 L 86.453125 62.234375 L 83.203125 62.234375 L 83.203125 65.375 L 86.796875 65.375 L 86.796875 66.332031 L 82.121094 66.332031 L 82.121094 57.574219 "/>
<path style=" stroke:none;fill-rule:nonzero;fill:rgb(100%,100%,100%);fill-opacity:1;" d="M 48.875 75.601563 C 48.777344 77.257813 48.125 78.78125 46.214844 78.78125 C 43.722656 78.78125 43.390625 76.4375 43.390625 74.230469 C 43.390625 72.019531 43.796875 69.679688 46.214844 69.679688 C 48.003906 69.679688 48.753906 70.683594 48.800781 72.402344 L 47.671875 72.402344 C 47.648438 71.40625 47.328125 70.5625 46.214844 70.5625 C 44.714844 70.5625 44.519531 72.207031 44.519531 74.230469 C 44.519531 76.253906 44.714844 77.898438 46.214844 77.898438 C 47.527344 77.898438 47.710938 76.671875 47.746094 75.601563 L 48.875 75.601563 "/>
<path style=" stroke:none;fill-rule:nonzero;fill:rgb(100%,100%,100%);fill-opacity:1;" d="M 53.800781 73.824219 L 54.871094 73.824219 C 55.507813 73.824219 56.671875 73.824219 56.671875 72.132813 C 56.671875 71.273438 56.097656 70.734375 55.089844 70.734375 L 53.800781 70.734375 Z M 52.722656 69.851563 L 55.554688 69.851563 C 56.929688 69.851563 57.800781 70.660156 57.800781 72.046875 C 57.800781 73.003906 57.472656 74.007813 56.453125 74.253906 L 56.453125 74.277344 C 57.214844 74.363281 57.640625 74.988281 57.691406 75.738281 L 57.765625 77.234375 C 57.8125 78.203125 57.972656 78.449219 58.230469 78.609375 L 56.929688 78.609375 C 56.746094 78.425781 56.660156 77.773438 56.636719 77.34375 L 56.5625 75.984375 C 56.476563 74.78125 55.816406 74.707031 55.261719 74.707031 L 53.800781 74.707031 L 53.800781 78.609375 L 52.722656 78.609375 L 52.722656 69.851563 "/>
<path style=" stroke:none;fill-rule:nonzero;fill:rgb(100%,100%,100%);fill-opacity:1;" d="M 61.933594 69.851563 L 63.011719 69.851563 L 63.011719 78.609375 L 61.933594 78.609375 L 61.933594 69.851563 "/>
<path style=" stroke:none;fill-rule:nonzero;fill:rgb(100%,100%,100%);fill-opacity:1;" d="M 70.996094 72.121094 C 70.996094 71.199219 70.664063 70.5625 69.632813 70.5625 C 68.726563 70.5625 68.1875 71.050781 68.1875 71.984375 C 68.1875 74.449219 72.320313 72.976563 72.320313 76.179688 C 72.320313 78.203125 70.835938 78.78125 69.597656 78.78125 C 67.546875 78.78125 66.949219 77.726563 66.949219 75.859375 L 68.027344 75.859375 C 68.027344 76.84375 68.089844 77.898438 69.671875 77.898438 C 70.53125 77.898438 71.191406 77.285156 71.191406 76.351563 C 71.191406 73.875 67.058594 75.308594 67.058594 72.09375 C 67.058594 71.285156 67.402344 69.679688 69.621094 69.679688 C 71.289063 69.679688 72.050781 70.511719 72.074219 72.121094 L 70.996094 72.121094 "/>
<path style=" stroke:none;fill-rule:nonzero;fill:rgb(100%,100%,100%);fill-opacity:1;" d="M 76.253906 69.851563 L 77.335938 69.851563 L 77.335938 78.609375 L 76.253906 78.609375 L 76.253906 69.851563 "/>
<path style=" stroke:none;fill-rule:nonzero;fill:rgb(100%,100%,100%);fill-opacity:1;" d="M 85.320313 72.121094 C 85.320313 71.199219 84.988281 70.5625 83.957031 70.5625 C 83.046875 70.5625 82.507813 71.050781 82.507813 71.984375 C 82.507813 74.449219 86.644531 72.976563 86.644531 76.179688 C 86.644531 78.203125 85.160156 78.78125 83.917969 78.78125 C 81.871094 78.78125 81.269531 77.726563 81.269531 75.859375 L 82.347656 75.859375 C 82.347656 76.84375 82.410156 77.898438 83.992188 77.898438 C 84.851563 77.898438 85.515625 77.285156 85.515625 76.351563 C 85.515625 73.875 81.378906 75.308594 81.378906 72.09375 C 81.378906 71.285156 81.722656 69.679688 83.945313 69.679688 C 85.613281 69.679688 86.375 70.511719 86.398438 72.121094 L 85.320313 72.121094 "/>
<path style=" stroke:none;fill-rule:nonzero;fill:rgb(100%,100%,100%);fill-opacity:1;" d="M 34.242188 72.828125 C 34.636719 72.449219 35.027344 72.105469 35.027344 71.515625 C 35.027344 71.015625 34.660156 70.660156 34.144531 70.660156 C 33.617188 70.660156 33.273438 71.015625 33.273438 71.515625 C 33.273438 71.910156 33.53125 72.351563 33.800781 72.757813 L 34.007813 73.050781 Z M 33.726563 74.265625 C 33.027344 74.683594 32.476563 75.34375 32.476563 76.265625 C 32.476563 77.332031 33.222656 77.898438 34.082031 77.898438 C 34.769531 77.898438 35.234375 77.527344 35.652344 77.050781 Z M 36.191406 76.179688 C 36.363281 75.738281 36.476563 75.246094 36.535156 74.472656 L 37.492188 74.472656 C 37.492188 75.113281 37.113281 76.597656 36.78125 77.027344 L 37.910156 78.609375 L 36.746094 78.609375 L 36.15625 77.785156 C 35.480469 78.425781 34.941406 78.78125 33.996094 78.78125 C 31.863281 78.78125 31.394531 77.148438 31.394531 76.351563 C 31.394531 75.441406 31.875 74.632813 32.585938 74.082031 L 33.222656 73.601563 L 32.953125 73.160156 C 32.636719 72.671875 32.316406 72.179688 32.316406 71.566406 C 32.316406 70.535156 33.136719 69.847656 34.132813 69.847656 C 35.234375 69.847656 35.984375 70.328125 35.984375 71.515625 C 35.984375 72.375 35.382813 72.929688 34.78125 73.429688 L 34.464844 73.699219 L 36.191406 76.179688 "/>
</g>
</svg>
